<?xml version="1.0" encoding="UTF-8"?>
<!DOCTYPE svg PUBLIC "-//W3C//DTD SVG 1.1//EN" "http://www.w3.org/Graphics/SVG/1.1/DTD/svg11.dtd">
<!-- Creator: CorelDRAW 2018 (64-Bit Evaluation Version) -->
<svg xmlns="http://www.w3.org/2000/svg" xml:space="preserve" width="135.821mm" height="195.18mm" version="1.1" style="shape-rendering:geometricPrecision; text-rendering:geometricPrecision; image-rendering:optimizeQuality; fill-rule:evenodd; clip-rule:evenodd"
viewBox="0 0 13582.14 19518.05"
 xmlns:xlink="http://www.w3.org/1999/xlink">
 <defs>
  <style type="text/css">
   <![CDATA[
    .fil2 {fill:darkblue}
    .fil1 {fill:#FF7F00}
    .fil0 {fill:darkblue;fill-rule:nonzero}
   ]]>
  </style>
 </defs>
 <g id="Layer_x0020_1">
  <metadata id="CorelCorpID_0Corel-Layer"/>
  <path class="fil0" d="M-0 16467.42l865.17 0c262.1,0 465.63,21.78 610.57,66.09 144.2,43.56 265.86,143.45 364.25,298.16 98.38,154.7 147.19,346.21 147.19,575.27 0,220.05 -39.8,401.79 -118.66,545.99 -79.6,143.44 -189.25,247.83 -329.69,311.67 -140.44,63.84 -355.98,95.38 -647.37,95.38l-233.57 0 0 1113 -657.89 0 0 -3005.57zm657.89 486.66l0 892.21 205.78 0c181.74,0 298.9,-42.06 350.72,-126.18 52.57,-83.36 78.86,-192.25 78.86,-326.69 0,-113.4 -20.28,-205.02 -60.83,-274.87 -40.56,-69.84 -87.87,-114.9 -141.95,-134.43 -53.32,-20.28 -129.17,-30.04 -226.8,-30.04l-205.78 0zm3718.28 1014.62c0,1032.64 -362.74,1549.35 -1088.97,1549.35 -361.24,0 -633.85,-131.43 -817.1,-395.03 -183.25,-262.86 -274.87,-648.13 -274.87,-1154.31 0,-1031.14 363.49,-1546.35 1089.72,-1546.35 354.48,0 625.59,129.18 811.84,387.53 186.25,257.59 279.38,644.37 279.38,1158.81zm-693.94 0c0,-404.8 -31.54,-674.41 -94.62,-808.84 -63.84,-134.43 -164.48,-201.27 -302.66,-201.27 -137.44,0 -237.32,67.59 -301.16,202.77 -63.08,134.43 -94.63,404.05 -94.63,807.34 0,396.54 31.55,664.65 93.88,804.34 62.33,138.93 162.97,208.78 301.91,208.78 136.68,0 237.32,-66.84 301.15,-200.52 63.84,-133.68 96.13,-404.05 96.13,-812.6zm1153.56 -1501.29l657.89 0 0 2446.82 973.31 0 0 558.75 -1631.21 0 0 -3005.57zm1918.85 0l1024.39 0c240.32,0 422.06,18.78 544.48,57.08 122.42,38.3 224.55,121.67 307.92,250.84 82.61,129.17 123.91,289.89 123.91,482.15 0,335.7 -142.69,551.24 -428.83,646.62 340.21,120.17 509.94,366.5 509.94,738.25 0,195.26 -45.81,360.49 -138.18,494.92 -92.38,134.43 -206.53,223.8 -342.47,268.86 -135.18,44.31 -327.44,66.84 -576.77,66.84l-1024.39 0 0 -3005.57zm635.36 1212.14l212.54 0c211.78,0 344.71,-38.3 399.54,-114.15 54.82,-76.61 81.86,-163.72 81.86,-262.11 0,-90.87 -27.04,-171.23 -81.86,-242.57 -54.83,-71.35 -171.99,-106.65 -351.48,-106.65l-260.6 0 0 725.48zm0 1279.73l322.19 0c301.9,0 452.86,-131.43 452.86,-394.29 0,-146.44 -37.55,-249.33 -112.66,-309.41 -75.1,-59.33 -188.5,-89.37 -340.2,-89.37l-322.19 0 0 793.07zm2425.04 -2491.88l664.64 0 857.66 3005.57 -674.41 0 -150.2 -621.84 -844.89 0 -147.95 621.84 -606.82 0 901.97 -3005.57zm573.77 1870.04l-303.41 -1231.66 -291.39 1231.66 594.8 0zm1179.09 -1870.04l731.49 0 773.54 1867.03 0 -1867.03 509.19 0 0 3005.57 -588.79 0 -916.24 -2175.7 0 2175.7 -509.19 0 0 -3005.57z"/>
  <polygon class="fil1" points="-0,3920.81 6791.05,0 7922.89,653.47 -0,6534.69 "/>
  <polygon class="fil1" points="-0,6534.69 9054.71,1306.93 10186.57,1960.41 -0,9148.57 "/>
  <polygon class="fil1" points="-0,9148.57 11318.41,2613.88 12450.24,3267.34 -0,11762.44 "/>
  <path class="fil2" d="M-0 11762.44l3055.45 -1764.07c745.76,1288.93 2139.36,2156.15 3735.59,2156.15 2381.95,0 4312.9,-1930.95 4312.9,-4312.9 0,-785.71 -210.2,-1522.3 -577.3,-2156.75l3055.45 -1764.07 0 7841.63 -6791.05 3920.81 -6791.05 -3920.81z"/>
 </g>
</svg>
